<?xml version="1.0" standalone="no"?>
<!DOCTYPE svg PUBLIC "-//W3C//DTD SVG 20010904//EN"
 "http://www.w3.org/TR/2001/REC-SVG-20010904/DTD/svg10.dtd">
<svg version="1.0" xmlns="http://www.w3.org/2000/svg"
 width="1080.000000pt" height="1080.000000pt" viewBox="0 0 1080.000000 1080.000000"
 preserveAspectRatio="xMidYMid meet">

<g transform="translate(0.000000,1080.000000) scale(0.100000,-0.100000)"
fill="#212226" stroke="none">
<path d="M0 5400 l0 -5400 5400 0 5400 0 0 5400 0 5400 -5400 0 -5400 0 0
-5400z m5581 2469 c485 -327 800 -539 1094 -740 161 -111 269 -184 837 -568
394 -267 422 -287 453 -326 l30 -37 0 -1660 0 -1660 -28 -24 c-28 -23 -32 -24
-212 -24 -211 0 -230 5 -245 61 -7 25 -10 539 -8 1531 l3 1493 -27 45 c-30 53
-31 53 -298 232 -113 76 -212 142 -220 148 -8 6 -119 81 -247 168 -128 86
-290 196 -360 244 -70 47 -211 143 -313 213 -573 392 -593 405 -638 405 -29 0
-108 -32 -122 -49 -6 -7 -33 -26 -260 -179 -85 -58 -202 -137 -260 -177 -249
-170 -630 -428 -1040 -703 -184 -124 -352 -241 -372 -260 -21 -20 -43 -51 -49
-69 -17 -53 -17 -2520 1 -2562 27 -65 -81 -61 1579 -61 935 0 1519 4 1535 10
14 5 33 21 43 37 17 26 18 81 20 977 2 649 0 961 -8 989 -6 21 -27 56 -47 77
-20 21 -161 121 -312 223 -151 101 -345 232 -430 291 -229 157 -248 168 -292
163 -34 -5 -124 -62 -368 -232 -66 -46 -301 -206 -491 -333 -145 -97 -170
-117 -188 -155 -21 -43 -21 -52 -21 -754 0 -703 0 -711 -21 -737 l-20 -26
-194 0 c-187 0 -195 1 -220 23 l-25 22 0 853 c-1 776 1 856 16 888 20 41 15
38 539 389 220 148 519 350 665 450 146 100 275 187 287 193 12 7 38 12 57 12
37 0 45 -5 406 -253 69 -47 188 -129 265 -181 77 -52 208 -141 290 -197 83
-56 231 -156 330 -222 99 -66 193 -132 208 -146 61 -56 57 42 57 -1432 0 -886
-4 -1357 -10 -1369 -6 -11 -27 -24 -48 -30 -26 -8 -628 -10 -2039 -8 l-2003 3
-27 28 -28 27 2 1648 c1 1455 2 1652 16 1678 25 48 0 30 562 409 121 82 254
172 295 200 41 28 140 96 220 150 80 54 199 135 265 180 226 153 430 292 605
410 96 65 245 166 330 224 261 178 250 171 300 171 42 0 60 -9 181 -91z"/>
</g>
</svg>
